<svg xmlns="http://www.w3.org/2000/svg" width="57" height="20" viewBox="0 0 57 20">
    <g fill="#BFBFBF" fill-rule="evenodd">
        <path d="M13.876 13.982c-.184 0-.337.062-.43.174-.242.288-.133.794.236 1.106a.986.986 0 0 0 .62.217c.232 0 .426-.084.545-.237.215-.278.091-.673-.314-1.005a1.055 1.055 0 0 0-.657-.255m2.022-1.444c-.18-.05-.313-.013-.38.104-.1.178-.026.528.176.833.205.31.38.466.518.466.047 0 .09-.02.123-.056.077-.085.102-.264.07-.49-.033-.232-.18-.708-.507-.857m3.99 7.064c.185.222-.097.449-.308.268-2.105-1.804-3.875-2.315-5.626-2.385-.93-.038-1.853.048-2.819.13a69.923 69.923 0 0 1-.843.068 9.97 9.97 0 0 1-1.035.054 9.574 9.574 0 0 1-4.621-1.161 8.657 8.657 0 0 1-3.364-3.209A8.563 8.563 0 0 1 .057 8.922c0-1.594.408-3.096 1.213-4.463a8.758 8.758 0 0 1 3.326-3.24A9.218 9.218 0 0 1 9.135.043c1.683 0 3.257.391 4.677 1.162a8.72 8.72 0 0 1 3.374 3.218 8.566 8.566 0 0 1 1.227 4.457 8.871 8.871 0 0 1-.329 2.397l-.007-.005c-.164.506-.467 1.22-1.032 2.138-.061.097-.095.024-.103-.03-.197-1.35-.809-2.376-1.887-3.038l-.054-.032a4.757 4.757 0 0 0-.566-.287 5.96 5.96 0 0 0-.832-.281c-.183-.048-.59-.028-.443-.17.061-.058.944-.071 1.958-.009l.06.004c.018-.206.028-.417.028-.633 0-1.685-.576-3.059-1.762-4.2-1.187-1.14-2.575-1.696-4.242-1.696-1.708 0-3.093.556-4.234 1.7C3.821 5.885 3.264 7.247 3.264 8.9c0 1.65.573 3.006 1.752 4.146 1.18 1.14 2.548 1.695 4.186 1.695.078 0 .156-.002.233-.004l-.005-.057c-.094-1.163-.114-2.13.134-1.74.087.138.174.268.26.393a8.43 8.43 0 0 0 1.009 1.217c1.164 1.143 2.31 1.425 3.527 1.714l.078.018c.2.048.4.096.605.149 1.447.373 3.015.976 4.845 3.17M21.94 5.41h1.825v2.785h.75L26.06 5.41h1.96l-2.012 3.45v.02l2.127 3.744H26.09l-1.575-2.926h-.75v2.926h-1.826V5.41M32.661 9.698l-.417-1.402c-.135-.454-.302-1.241-.302-1.241h-.02s-.168.787-.303 1.24l-.428 1.403h1.47zM30.972 5.41h1.919l2.534 7.214h-1.877l-.459-1.513h-2.326l-.448 1.513h-1.877l2.534-7.214zM39.242 5.289c1 0 2.065.323 2.795 1.019l-.845 1.332c-.48-.404-1.2-.737-1.867-.737-1.491 0-2.107 1.02-2.107 2.059 0 1.07.668 2.169 2.107 2.169.74 0 1.47-.394 1.982-.888l.938 1.291c-.657.656-1.637 1.211-3.003 1.211-2.4 0-3.911-1.604-3.911-3.743 0-2.099 1.606-3.713 3.91-3.713M46.51 5.289c1.002 0 2.066.323 2.796 1.019L48.46 7.64c-.48-.404-1.2-.737-1.867-.737-1.491 0-2.107 1.02-2.107 2.059 0 1.07.668 2.169 2.107 2.169.74 0 1.47-.394 1.982-.888l.938 1.291c-.657.656-1.637 1.211-3.003 1.211-2.399 0-3.911-1.604-3.911-3.743 0-2.099 1.606-3.713 3.91-3.713M53.853 9.698l-.417-1.402c-.136-.454-.303-1.241-.303-1.241h-.02s-.167.787-.303 1.24l-.428 1.403h1.471zm-1.69-4.288h1.92l2.534 7.214h-1.878l-.458-1.513h-2.326l-.449 1.513H49.63l2.534-7.214z"/>
    </g>
</svg>
