<?xml version="1.0" encoding="UTF-8"?>
<svg width="73px" height="18px" viewBox="0 0 73 18" version="1.1" xmlns="http://www.w3.org/2000/svg" xmlns:xlink="http://www.w3.org/1999/xlink">
    <!-- Generator: Sketch 53.2 (72643) - https://sketchapp.com -->
    <title>mc_idcheck_hrz_pos</title>
    <desc>Created with Sketch.</desc>
    <g id="Symbols" stroke="none" stroke-width="1" fill="none" fill-rule="evenodd">
        <g id="Futter" transform="translate(-166.000000, -1.000000)" fill-rule="nonzero">
            <g id="mc_idcheck_hrz_pos" transform="translate(166.000000, 1.000000)">
                <path d="M26.6639126,17.907793 L26.1181084,17.907793 L26.1181084,11.4653587 L26.6639126,11.4653587 L26.6639126,17.907793 Z M30.8245507,11.4653587 C31.3035433,11.4579347 31.7803092,11.5338595 32.2346939,11.6899235 C32.63241,11.8251898 32.9981686,12.0446503 33.3084069,12.3341669 C33.5995024,12.6175903 33.8267254,12.9631451 33.974109,13.3465495 C34.2905795,14.2083451 34.2905795,15.1592845 33.974109,16.0210801 C33.8243438,16.4060014 33.5940061,16.7522758 33.2994593,17.0353033 C32.9892525,17.3248641 32.6234843,17.5443303 32.2257463,17.6795467 C31.7719299,17.8354057 31.2957859,17.9113278 30.8173926,17.9041116 L28.5375419,17.9041116 L28.5375419,11.4616773 L30.8245507,11.4653587 Z M29.0851355,11.9991604 L29.0851355,17.3739913 L30.8245507,17.3739913 C31.2344365,17.3836806 31.6429291,17.3214326 32.0324779,17.1899217 C32.35984,17.0755554 32.6599163,16.8911138 32.9129226,16.6487572 C33.1519164,16.4119876 33.3354888,16.1224608 33.4497792,15.8020373 C33.6921228,15.0868576 33.6921228,14.3083824 33.4497792,13.5932027 C33.3350601,13.2724641 33.1515652,12.9824302 32.9129226,12.744642 C32.6606838,12.5012363 32.3603746,12.3166515 32.0324779,12.2034776 C31.6427619,12.0726957 31.234391,12.0104662 30.8245507,12.019408 L29.0851355,11.9991604 Z M40.9138745,11.3917308 C41.175961,11.3909987 41.4372265,11.4218879 41.6923165,11.4837656 C41.9367682,11.5429074 42.1734711,11.631892 42.3973881,11.7488258 C42.6125323,11.8606571 42.8128101,12.0004682 42.9932988,12.164823 C43.1695475,12.3257457 43.3225992,12.5116848 43.4478373,12.7170316 L42.9915093,13.0299498 C42.8841287,12.8609703 42.7553437,12.7074561 42.6085516,12.5734574 C42.4606341,12.4386292 42.297157,12.3230247 42.1218017,12.2292473 C41.9402784,12.1325775 41.7479787,12.0590211 41.5491547,12.0102045 C41.3416304,11.9593993 41.1289844,11.9340666 40.915664,11.934736 C40.5599059,11.931803 40.2069209,11.9992944 39.8759519,12.1335311 C39.5640108,12.2577103 39.279734,12.4455514 39.0402452,12.6857398 C38.7995487,12.9340451 38.6096968,13.2294702 38.4819144,13.5545481 C38.2104212,14.2770524 38.2104212,15.0776923 38.4819144,15.8001966 C38.6099735,16.12611 38.8004581,16.4221986 39.0420347,16.6708456 C39.2815236,16.911034 39.5658003,17.0988751 39.8777414,17.2230542 C40.2087104,17.3572909 40.5616954,17.4247824 40.9174535,17.4218493 C41.1294839,17.4224117 41.3408637,17.3977043 41.5473652,17.3482215 C41.7456554,17.3012628 41.9374376,17.2289112 42.1182227,17.1328601 C42.2942695,17.0393255 42.4583669,16.9237075 42.6067621,16.7886501 C42.754354,16.6540761 42.883218,16.4992291 42.9897198,16.3284762 L43.4371002,16.6653235 C43.3072178,16.8698145 43.1513419,17.0555288 42.9736141,17.2175321 C42.7938757,17.3782354 42.5955264,17.5154861 42.3830719,17.6261665 C42.1620991,17.7413429 41.928347,17.8284934 41.6869479,17.8857046 C41.0065876,18.0449747 40.2954528,17.9911241 39.6451036,17.7310862 C39.2650763,17.5767415 38.9188803,17.3458111 38.6268657,17.0518695 C38.336518,16.7555709 38.1076165,16.4017738 37.9540055,16.0118766 C37.629015,15.1561491 37.629015,14.2059583 37.9540055,13.3502309 C38.1073153,12.9596287 38.3362397,12.6051701 38.6268657,12.3083972 C38.9188803,12.0144556 39.2650763,11.7835252 39.6451036,11.6291806 C40.0486987,11.4671165 40.4788555,11.3864993 40.912085,11.3917308 L40.9138745,11.3917308 Z M45.3035714,14.3368437 C45.3836565,14.2002365 45.4825042,14.0762433 45.597053,13.9687046 C45.7041601,13.8666549 45.8246311,13.7805333 45.9549574,13.7128479 C46.0859183,13.6469671 46.2241073,13.5975269 46.3665474,13.5655922 C46.5076169,13.5337843 46.6516134,13.5177386 46.7960326,13.5177342 C47.039682,13.5151894 47.2819018,13.5562986 47.5118413,13.6392201 C47.720208,13.7146461 47.911414,13.8330262 48.0737511,13.9871115 C48.2310851,14.141865 48.3532906,14.3304151 48.4316555,14.5393202 C48.5191392,14.7703577 48.5622859,15.0166385 48.5587115,15.2645542 L48.5587115,17.9188371 L48.0486978,17.9188371 L48.0486978,15.4136505 C48.051416,15.2135218 48.0211628,15.0143648 47.9592217,14.824628 C47.9042041,14.6582939 47.8137118,14.5067244 47.6943725,14.3810204 C47.5745048,14.25753 47.4297179,14.1626438 47.2702559,14.1030753 C47.086633,14.0353887 46.8926424,14.0023403 46.6976089,14.0055185 C46.5086274,14.0038182 46.3210289,14.0387888 46.1446467,14.1085974 C45.977668,14.1745902 45.8254633,14.2747868 45.6972662,14.4031087 C45.5690983,14.5332918 45.467495,14.6884905 45.3984161,14.8596012 C45.3240981,15.0438798 45.2869597,15.2417701 45.2892553,15.441261 L45.2892553,17.907793 L44.7792415,17.907793 L44.7792415,11.2812891 L45.2892553,11.2812891 L45.3035714,14.3368437 Z M51.9015382,13.5177342 C52.1699081,13.5154416 52.4357439,13.571258 52.6817697,13.6815561 C52.9171638,13.7871852 53.1286289,13.9420138 53.3027338,14.1362078 C53.4825563,14.3401715 53.6228619,14.5775774 53.7161133,14.8356721 C53.820245,15.1204859 53.8735912,15.4222805 53.8735912,15.7265688 C53.8735912,15.7670641 53.8735912,15.8044915 53.8735912,15.8388512 C53.8735912,15.8732108 53.8735912,15.9075705 53.8735912,15.9419301 L50.3339171,15.9419301 C50.3469011,16.1743817 50.4021373,16.4022692 50.4967636,16.613784 C50.5830561,16.8026249 50.7046733,16.9721286 50.854668,17.1126125 C51.0007917,17.2492766 51.1716653,17.3549828 51.3575236,17.42369 C51.5520975,17.495558 51.7574365,17.5316944 51.9641715,17.5304504 C52.2364086,17.5351162 52.5063526,17.4785784 52.7551401,17.3647878 C52.9896535,17.2534881 53.2034401,17.1008663 53.3868413,16.9138174 L53.6606381,17.2819565 C53.5363225,17.4118917 53.3989533,17.5278914 53.2508376,17.6280072 C53.1177104,17.7173072 52.9754939,17.7913747 52.826721,17.8488907 C52.6844712,17.9037485 52.5368731,17.9426289 52.3864986,17.9648545 C52.2364684,17.986052 52.0851882,17.9965078 51.9337496,17.9961463 C51.6427258,17.9991703 51.3539454,17.9435147 51.0837268,17.8323244 C50.8317125,17.7287613 50.6032392,17.5727168 50.4126561,17.3739913 C50.2196766,17.1696422 50.0698058,16.9265009 49.9724337,16.6598014 C49.8620124,16.3664386 49.8073384,16.0540083 49.8113768,15.7394536 C49.8083125,15.4317305 49.8623685,15.1262328 49.9706442,14.8393535 C50.0697706,14.575623 50.2187931,14.3347481 50.4090771,14.1306858 C50.5968722,13.931882 50.8221914,13.7746593 51.0712001,13.6686712 C51.3340407,13.558305 51.6158876,13.5038301 51.8997487,13.5085307 L51.9015382,13.5177342 Z M51.9015382,13.9834301 C51.7000172,13.9806553 51.4999446,14.0188116 51.3127856,14.0957125 C51.1391314,14.1684469 50.9805973,14.2746595 50.8457204,14.4086308 C50.7088432,14.5457599 50.5972804,14.7072874 50.5164484,14.8853709 C50.4295429,15.0770628 50.3744978,15.2823854 50.3536019,15.4928004 L53.3546299,15.4928004 C53.3393659,15.2806898 53.2891396,15.0727946 53.2060996,14.8780081 C53.1310191,14.7002358 53.0241867,14.5385264 52.8911438,14.401268 C52.625346,14.1301344 52.2651242,13.9796716 51.8908011,13.9834301 L51.9015382,13.9834301 Z M56.9963067,13.5177342 C57.2945418,13.5150002 57.5902794,13.5738362 57.8660143,13.6907595 C58.1271153,13.801709 58.3602644,13.972287 58.5478221,14.189588 L58.2167606,14.5430016 C58.0575942,14.3777947 57.8701284,14.2442513 57.6637984,14.1490927 C57.4486706,14.0535026 57.2163101,14.005827 56.9819906,14.0091999 C56.7614029,14.0070482 56.5427372,14.0515307 56.3395522,14.1398892 C56.1448972,14.225673 55.9690154,14.3508712 55.8223804,14.5080283 C55.6738726,14.6668806 55.5576714,14.8546149 55.4805818,15.060237 C55.3163738,15.5099842 55.3163738,16.005737 55.4805818,16.4554842 C55.631536,16.8708058 55.9422722,17.2037454 56.3395522,17.3758319 C56.5427372,17.4641905 56.7614029,17.508673 56.9819906,17.5065213 C57.2198597,17.509116 57.4554727,17.4588879 57.672746,17.3592657 C57.8791084,17.2638335 58.0675038,17.1317371 58.2292872,16.9690382 L58.5478221,17.3279739 C58.3582108,17.5445428 58.1240783,17.7149458 57.8624353,17.8268023 C57.5873829,17.9439179 57.2921909,18.0027664 56.9945172,17.9998277 C56.6965382,18.00358 56.4008382,17.9460031 56.1248096,17.8304837 C55.6078899,17.6143509 55.200182,17.1889931 54.9974109,16.6542793 C54.7854425,16.082895 54.7854425,15.4512331 54.9974109,14.8798488 C55.1994084,14.3441964 55.6072945,13.9179868 56.1248096,13.7018037 C56.3969751,13.5790369 56.69021,13.5133313 56.9873591,13.5085307 L56.9963067,13.5177342 Z M60.262184,15.4136505 L60.9457813,15.4136505 L62.7174079,13.5876806 L63.3616357,13.5876806 L61.3573713,15.6308526 L63.3974261,17.9169964 L62.7496193,17.9169964 L60.9457813,15.8922314 L60.262184,15.8922314 L60.262184,17.9169964 L59.7432227,17.9169964 L59.7432227,11.2904926 L60.2532364,11.2904926 L60.262184,15.4136505 Z M32.7912352,9.17553344 L32.7912352,6.41449017 C32.7912352,5.37265651 32.1452178,4.67135152 31.1055056,4.66214805 C30.5024337,4.62204236 29.9258713,4.92244579 29.6005178,5.44628434 C29.3039883,4.937888 28.760878,4.63702686 28.1850061,4.66214805 C27.6841543,4.63726707 27.2077999,4.88645506 26.9323408,5.31743565 L26.9323408,4.765227 L26,4.765227 L26,9.17185205 L26.9412885,9.17185205 L26.9412885,6.7329305 C26.9412885,5.96720117 27.3528785,5.56224815 27.9899482,5.56224815 C28.627018,5.56224815 28.9222891,5.97640464 28.9222891,6.72372702 L28.9222891,9.17553344 L29.8635775,9.17553344 L29.8635775,6.7329305 C29.8635775,5.96720117 30.2930627,5.56224815 30.9122373,5.56224815 C31.5314118,5.56224815 31.8535257,5.97640464 31.8535257,6.72372702 L31.8535257,9.17553344 L32.7912352,9.17553344 Z M46.7190832,4.76890839 L45.1962001,4.76890839 L45.1962001,3.43256345 L44.2638593,3.43256345 L44.2638593,4.76890839 L43.3941517,4.76890839 L43.3941517,5.64507945 L44.2638593,5.64507945 L44.2638593,7.65511895 C44.2638593,8.67854565 44.6486065,9.28781587 45.7509519,9.28781587 C46.1626751,9.28918401 46.5664371,9.17116251 46.9159306,8.9472872 L46.6475023,8.126337 C46.3973656,8.27959116 46.1135271,8.36508779 45.8225327,8.37483089 C45.3572571,8.37483089 45.2033582,8.08031961 45.2033582,7.63855269 L45.2033582,5.64507945 L46.7262412,5.64507945 L46.7190832,4.76890839 Z M54.6699284,4.65846666 C54.2068364,4.6445817 53.7735003,4.89252228 53.5407402,5.30455078 L53.5407402,4.76890839 L52.6173469,4.76890839 L52.6173469,9.17553344 L53.5496878,9.17553344 L53.5496878,6.70532007 C53.5496878,5.96904186 53.8539065,5.57145163 54.4641334,5.57145163 C54.6637606,5.56848129 54.8619997,5.60601036 55.0475175,5.68189336 L55.333841,4.77811186 C55.1207521,4.69972338 54.8962337,4.65926241 54.6699284,4.65846666 L54.6699284,4.65846666 Z M42.6532897,5.12048123 C42.1254234,4.79790544 41.518547,4.6381739 40.9049269,4.66030735 C39.8204767,4.66030735 39.1154051,5.19410905 39.1154051,6.07028011 C39.1154051,6.78999206 39.6343664,7.23175898 40.5935501,7.36981115 L41.0319829,7.43423549 C41.5419966,7.50786331 41.7853716,7.64591547 41.7853716,7.89440937 C41.7853716,8.23493804 41.4453625,8.42821106 40.8082927,8.42821106 C40.2943253,8.44500487 39.789893,8.28286198 39.3766753,7.96803719 L38.9382425,8.71535956 C39.4811807,9.10583426 40.1317364,9.30651749 40.7939765,9.28781587 C42.0305361,9.28781587 42.7481343,8.68774913 42.7481343,7.85023267 C42.7481343,7.07529986 42.1826454,6.67034685 41.2520941,6.53229469 L40.8136613,6.46787034 C40.4110189,6.41264948 40.0871154,6.32981818 40.0871154,6.0353069 C40.0871154,5.71318518 40.3913341,5.51807146 40.9031374,5.51807146 C41.3720649,5.52519994 41.8315007,5.65506275 42.2381206,5.89541404 L42.6532897,5.12048123 Z M67.6242766,4.66030735 C67.1611845,4.6464224 66.7278484,4.89436297 66.4950883,5.30639148 L66.4950883,4.76890839 L65.5716951,4.76890839 L65.5716951,9.17553344 L66.5040359,9.17553344 L66.5040359,6.70532007 C66.5040359,5.96904186 66.8082546,5.57145163 67.4184816,5.57145163 C67.6181088,5.56848129 67.8163479,5.60601036 68.0018657,5.68189336 L68.2881892,4.77811186 C68.0751003,4.69972338 67.8505819,4.65926241 67.6242766,4.65846666 L67.6242766,4.66030735 Z M55.6130064,6.97406161 C55.6130064,8.31040655 56.5185044,9.28781587 57.8982257,9.28781587 C58.457695,9.31628717 59.007289,9.12850698 59.439004,8.76137695 L58.9916235,7.98644414 C58.6667027,8.23843179 58.27115,8.37534479 57.8642248,8.37667159 C57.1197837,8.37667159 56.5739796,7.81341876 56.5739796,6.96669883 C56.5739796,6.11997889 57.1215733,5.56592954 57.8642248,5.55672607 C58.2693085,5.56122883 58.6621746,5.70001739 58.9844654,5.9524756 L59.4318459,5.17754279 C59.0001309,4.81041276 58.450537,4.62263257 57.8910676,4.65110387 C56.5113463,4.65110387 55.6058483,5.62851319 55.6058483,6.96485813 L55.6130064,6.97406161 Z M64.3422936,6.97406161 L64.3422936,4.765227 L63.4117423,4.765227 L63.4117423,5.30086939 C63.0891971,4.87275279 62.5849597,4.63194789 62.0588638,4.65478527 C60.8580947,4.65478527 59.9114377,5.6229911 59.9114377,6.96853952 C59.9114377,8.31408794 60.8527262,9.28229378 62.0588638,9.28229378 C62.5849597,9.30513116 63.0891971,9.06432626 63.4117423,8.63620966 L63.4117423,9.17001136 L64.3440832,9.17001136 L64.3422936,6.97406161 Z M60.8742004,6.97406161 C60.8742004,6.1991288 61.3663189,5.56408885 62.1733932,5.56408885 C62.9446771,5.56408885 63.4636384,6.17335906 63.4636384,6.97406161 C63.4636384,7.77476416 62.9446771,8.38403437 62.1733932,8.38403437 C61.3663189,8.38403437 60.8742004,7.74715373 60.8742004,6.97406161 Z M49.6324246,4.65846666 C48.3797594,4.65846666 47.4993147,5.59906206 47.4993147,6.97222091 C47.4993147,8.3729902 48.4137603,9.28597517 49.6950579,9.28597517 C50.3348263,9.30903141 50.9604308,9.08885406 51.4523683,8.66750148 L50.9960402,7.95699301 C50.6401259,8.24990331 50.199161,8.41189434 49.743375,8.41716689 C49.1420956,8.41716689 48.5962915,8.13185909 48.4620774,7.33851932 L51.6438471,7.33851932 C51.6527947,7.21887411 51.6617423,7.09922891 51.6617423,6.97038022 C51.6617423,5.59722137 50.8278252,4.65662596 49.627056,4.65662596 L49.6324246,4.65846666 Z M49.6145294,5.51623076 C50.2158087,5.51623076 50.6005559,5.90277682 50.6989796,6.58567486 L48.4674459,6.58567486 C48.5658696,5.94879421 48.9416692,5.51623076 49.6055818,5.51623076 L49.6145294,5.51623076 Z M73,6.97222091 L73,3 L72.0676592,3 L72.0676592,5.30455078 C71.745114,4.87643418 71.2408766,4.63562928 70.7147807,4.65846666 C69.5140116,4.65846666 68.5673546,5.6266725 68.5673546,6.97222091 C68.5673546,8.31776933 69.508643,9.28597517 70.7147807,9.28597517 C71.2408766,9.30881255 71.745114,9.06800765 72.0676592,8.63989105 L72.0676592,9.17369275 L73,9.17369275 L73,6.97222091 Z M69.5319068,6.97038022 C69.5319068,6.19544741 70.0240253,5.56040746 70.8310996,5.56040746 C71.6023835,5.56040746 72.1213448,6.16967767 72.1213448,6.97038022 C72.1213448,7.77108277 71.6023835,8.38035298 70.8310996,8.38035298 C70.0240253,8.38035298 69.5319068,7.74347233 69.5319068,6.97038022 Z M38.0542187,6.97038022 L38.0542187,4.7615456 L37.1057722,4.7615456 L37.1057722,5.297188 C36.783227,4.8690714 36.2789896,4.6282665 35.7528937,4.65110387 C34.5521246,4.65110387 33.6054676,5.61930971 33.6054676,6.96485813 C33.6054676,8.31040655 34.546756,9.27861239 35.7528937,9.27861239 C36.2789896,9.30144977 36.783227,9.06064487 37.1057722,8.63252827 L37.1057722,9.16632997 L38.038113,9.16632997 L38.0542187,6.97038022 Z M34.5861255,6.97038022 C34.5861255,6.19544741 35.078244,5.56040746 35.8853183,5.56040746 C36.6566022,5.56040746 37.1755635,6.16967767 37.1755635,6.97038022 C37.1755635,7.77108277 36.6566022,8.38035298 35.8853183,8.38035298 C35.0675069,8.37667159 34.5753884,7.74715373 34.5753884,6.97222091 L34.5861255,6.97038022 Z" id="Shape" fill="#BFBFBF"></path>
                <g id="_Group_">
                    <rect id="Rectangle" fill="#BFBFBF" x="8" y="1.3" width="6" height="10.3"></rect>
                    <path d="M8.4031975,6.49909724 C8.40155393,4.50489262 9.35912464,2.62071246 11,1.38945503 C8.21241095,-0.704947264 4.20932129,-0.399879458 1.80399484,2.09026499 C-0.601331613,4.58040945 -0.601331613,8.41959055 1.80399484,10.909735 C4.20932129,13.3998795 8.21241095,13.7049473 11,11.610545 C9.35860246,10.3788965 8.40097325,8.49393545 8.4031975,6.49909724 Z" id="_Path_" fill="#A8A5A5"></path>
                    <path d="M21.9999998,6.50090273 C21.9999391,8.98926031 20.5137102,11.2591528 18.1725202,12.3465481 C15.8313302,13.4339435 13.0462058,13.1479351 11,11.6099919 C12.6400103,10.3778225 13.5975661,8.4940968 13.5975661,6.50000006 C13.5975661,4.50590333 12.6400103,2.62217758 11,1.39000823 C13.0464736,-0.14813643 15.8320311,-0.434002271 18.1733696,0.653846313 C20.5147081,1.7416949 22.0006623,4.01221945 21.9999998,6.50090273 Z" id="Path" fill="#E1E1E1"></path>
                </g>
            </g>
        </g>
    </g>
</svg>