<svg xmlns="http://www.w3.org/2000/svg" width="49" height="18" viewBox="0 0 49 18">
    <g fill="#BFBFBF" fill-rule="evenodd">
        <path d="M4.479 11.119a2.088 2.088 0 0 0-1.202-.352c-.581 0-1.049.12-1.049.736 0 1.089 2.12.682 2.12 3.013 0 2.123-1.4 2.673-2.665 2.673-.563 0-1.21-.186-1.688-.397l.343-1.56c.288.261.87.44 1.345.44.453 0 1.163-.124 1.163-.912 0-1.233-2.119-.774-2.119-2.939 0-1.98 1.238-2.573 2.432-2.573.672 0 1.304.099 1.674.344l-.354 1.527M8.736 16.927c-.49.168-.966.25-1.473.25-1.607 0-2.445-.944-2.445-2.744 0-2.103 1.067-3.653 2.514-3.653 1.185 0 1.941.866 1.941 2.228 0 .45-.051.89-.174 1.511H6.233a1.88 1.88 0 0 0-.012.19c0 .715.43 1.076 1.263 1.076.514 0 .979-.12 1.494-.389l-.242 1.53zm-.804-3.645c.006-.13.01-.233.01-.312 0-.499-.252-.791-.68-.791-.459 0-.785.393-.917 1.097l1.587.006zM12.947 16.924c-.297.142-.693.236-1.277.236-1.257 0-2.037-1.251-2.037-2.775 0-1.995 1.127-3.586 2.787-3.586.362 0 .915.156 1.35.408l-.318 1.463c-.308-.202-.63-.33-.96-.33-.769 0-1.318.702-1.318 1.96 0 .724.398 1.318 1.028 1.318.374 0 .638-.079.96-.267l-.215 1.573M18.326 15.39a23.898 23.898 0 0 0-.183 1.59H16.76l.116-.99h-.014c-.433.672-.882 1.13-1.666 1.13-.869 0-1.34-.91-1.34-2.1 0-.411.026-.643.118-1.284l.392-2.835h1.54l-.413 2.844c-.042.306-.1.609-.1.924 0 .359.163.722.579.7.631 0 1.004-.77 1.11-1.668l.425-2.8h1.492l-.672 4.49M22.221 10.841a.556.556 0 0 0-.147-.017c-.467 0-.741.27-1.18.997l.128-.93H19.72l-.879 6.127h1.438c.517-3.748.654-4.393 1.344-4.393.04 0 .045 0 .105.007.13-.741.304-1.284.546-1.78l-.053-.01M25.843 16.927c-.49.168-.968.25-1.474.25-1.61 0-2.446-.944-2.446-2.744 0-2.103 1.067-3.653 2.514-3.653 1.185 0 1.943.866 1.943 2.228 0 .45-.053.89-.18 1.511h-2.86c-.01.092-.015.138-.015.19 0 .715.429 1.076 1.263 1.076.514 0 .98-.12 1.495-.389l-.24 1.53zm-.809-3.645c.01-.13.015-.233.015-.312 0-.499-.254-.791-.68-.791-.46 0-.786.393-.919 1.097l1.584.006zM31.745 9.72l-.236 1.632c-.512-.288-.884-.407-1.287-.407-1.076 0-1.828 1.166-1.828 2.823 0 1.145.504 1.837 1.342 1.837.358 0 .748-.121 1.224-.388l-.25 1.718c-.532.164-.88.22-1.275.22-1.55 0-2.516-1.249-2.516-3.252 0-2.696 1.333-4.578 3.242-4.578.247 0 .466.032.647.081l.588.167c.182.071.22.084.349.147M34.669 13.523c0 1.389-.432 2.207-1.112 2.207-.497.015-.797-.536-.797-1.361 0-.975.44-2.08 1.145-2.08.568 0 .764.598.764 1.234zm1.515.026c0-1.544-.766-2.746-2.205-2.746-1.656 0-2.73 1.461-2.73 3.613 0 1.54.635 2.799 2.203 2.799 1.583 0 2.732-1.117 2.732-3.666zM41.006 16.952h-1.359l.07-.598c-.395.472-.806.68-1.332.68-1.048 0-1.74-1.012-1.74-2.544 0-2.034 1.074-3.759 2.344-3.759.56 0 .985.264 1.378.844l.317-2.154h1.415l-1.093 7.531zm-2.126-1.44c.677 0 1.144-.851 1.144-2.065 0-.78-.266-1.2-.76-1.2-.655 0-1.12.851-1.12 2.061 0 .798.25 1.203.736 1.203zM45.913 16.927c-.497.168-.968.25-1.477.25-1.606 0-2.447-.944-2.447-2.744 0-2.103 1.07-3.653 2.516-3.653 1.186 0 1.94.866 1.94 2.228 0 .45-.049.89-.176 1.511h-2.863c-.01.092-.012.138-.012.19 0 .715.43 1.076 1.263 1.076.515 0 .979-.12 1.495-.389l-.239 1.53zm-.808-3.645c.006-.13.01-.233.01-.312 0-.499-.251-.791-.68-.791-.459 0-.784.393-.917 1.097l1.587.006zM47.348 16.905h-.232v-1.016h-.337v-.218h.906v.218h-.337v1.016zm1.545 0h-.217v-1.031h-.004l-.208 1.03h-.228l-.203-1.03h-.003v1.03h-.217v-1.233h.34l.201.973h.004l.198-.973h.337v1.234zM6.47 7.742H4.93l.882-5.789-1.97 5.789H2.789l-.127-5.755-.929 5.755H.292L1.493.209H3.71l.061 4.661L5.27.21h2.393L6.469 7.742M10.434 5.013a2.596 2.596 0 0 0-.345-.026c-.872 0-1.315.316-1.315.935 0 .381.218.624.554.624.626 0 1.08-.624 1.106-1.533zm1.12 2.729h-1.275l.028-.636c-.39.507-.908.742-1.614.742-.837 0-1.409-.682-1.409-1.669 0-1.495.999-2.363 2.707-2.363.174 0 .397.013.626.045.048-.203.061-.29.061-.397 0-.405-.268-.559-.99-.559-.435 0-.935.066-1.28.175l-.214.062-.135.04.212-1.374c.769-.238 1.275-.33 1.846-.33 1.323 0 2.025.622 2.025 1.796 0 .305-.023.532-.128 1.216l-.322 2.17-.052.392-.04.312-.027.214-.019.164zM12.652 3.553c0 .773.358 1.308 1.168 1.708.62.307.718.396.718.675 0 .38-.275.557-.881.557-.457 0-.885-.076-1.377-.245l-.213 1.413.07.015.282.06c.091.019.225.036.402.055.367.034.648.05.848.05 1.615 0 2.363-.65 2.363-2.045 0-.838-.312-1.334-1.082-1.705-.642-.305-.715-.377-.715-.662 0-.332.255-.502.75-.502.301 0 .71.035 1.101.09l.22-1.414a9.62 9.62 0 0 0-1.351-.12c-1.715 0-2.309.94-2.303 2.07M18.723 7.667c-.418.139-.75.202-1.105.202-.786 0-1.215-.477-1.215-1.348 0-.17.013-.354.044-.549l.095-.597.07-.488.67-4.18h1.53l-.175.909h.788l-.217 1.49h-.785l-.407 2.556c-.014.113-.026.196-.026.254 0 .313.16.453.525.453a1.2 1.2 0 0 0 .414-.057l-.206 1.355M23.601 7.613a5.12 5.12 0 0 1-1.582.246c-1.717 0-2.615-.942-2.615-2.742 0-2.105 1.142-3.655 2.693-3.655 1.266 0 2.078.869 2.078 2.23 0 .45-.054.89-.191 1.51h-3.062a1.21 1.21 0 0 0-.015.19c0 .717.458 1.077 1.354 1.077.55 0 1.044-.118 1.597-.39l-.257 1.534zm-.864-3.647c.01-.128.011-.233.011-.31 0-.501-.27-.793-.729-.793-.488 0-.838.39-.982 1.098l1.7.005zM27.944 1.565a.845.845 0 0 0-.158-.015c-.507 0-.794.267-1.266.997l.138-.931h-1.396l-.945 6.126h1.547c.554-3.744.695-4.39 1.437-4.39.045 0 .05 0 .112.006.138-.739.325-1.281.583-1.776l-.052-.017M33.055.445l-.251 1.635c-.548-.29-.95-.404-1.38-.404-1.146 0-1.957 1.161-1.957 2.819 0 1.145.544 1.835 1.44 1.835.38 0 .797-.122 1.308-.389l-.27 1.72c-.564.162-.933.22-1.36.22-1.66 0-2.694-1.249-2.694-3.252 0-2.694 1.427-4.576 3.47-4.576.263 0 .498.025.69.08l.635.167c.188.074.23.086.37.145M35.708 5.013a2.571 2.571 0 0 0-.342-.026c-.876 0-1.32.316-1.32.935 0 .381.22.624.556.624.63 0 1.078-.624 1.106-1.533zm1.121 2.729h-1.277l.03-.636c-.389.507-.91.742-1.614.742-.837 0-1.41-.682-1.41-1.669 0-1.495.997-2.363 2.708-2.363.174 0 .399.013.626.045a1.62 1.62 0 0 0 .062-.397c0-.405-.268-.559-.99-.559-.438 0-.937.066-1.278.175l-.22.062-.133.04.215-1.374c.77-.238 1.275-.33 1.841-.33 1.326 0 2.027.622 2.027 1.796 0 .305-.027.532-.126 1.216l-.325 2.17-.048.392-.043.312-.028.214-.017.164zM41.131 1.565a.772.772 0 0 0-.155-.015c-.505 0-.794.267-1.268.997l.138-.931h-1.393l-.943 6.126h1.543c.554-3.744.7-4.39 1.436-4.39.048 0 .045-.005.108.006.14-.739.328-1.281.587-1.776l-.053-.017M45.322 7.742h-1.457l.076-.6c-.424.474-.86.68-1.423.68-1.127 0-1.864-1.01-1.864-2.542 0-2.038 1.147-3.758 2.509-3.758.598 0 1.05.258 1.477.839l.335-2.152h1.519l-1.172 7.533zM43.05 6.3c.72 0 1.223-.852 1.223-2.064 0-.779-.287-1.203-.82-1.203-.697 0-1.193.855-1.193 2.06 0 .803.266 1.207.79 1.207zM46.216 6.853c0-.532.415-.963.921-.963.508 0 .919.43.919.963 0 .534-.41.965-.919.965-.506 0-.92-.431-.92-.965zm.921.737c.387 0 .702-.331.702-.737 0-.403-.315-.73-.702-.73-.385 0-.702.327-.702.73 0 .406.317.737.702.737zm-.125-.314h-.189v-.85h.342c.07 0 .148.005.207.048a.262.262 0 0 1 .103.213.225.225 0 0 1-.139.214l.148.375h-.21l-.124-.333h-.138v.333zm0-.477h.105c.038 0 .083.001.115-.018.033-.02.046-.062.046-.098 0-.032-.018-.07-.046-.085-.028-.02-.084-.015-.117-.015h-.103v.216z"/>
    </g>
</svg>
