<svg xmlns="http://www.w3.org/2000/svg" width="44" height="18" viewBox="0 0 44 18">
    <path fill="#BFBFBF" fill-rule="evenodd" d="M18.01 8.388h3.056a2.091 2.091 0 0 1-1.252 1.273l1.372 2.082h-2.212l-1.015-1.958h-.925v1.957h-1.932V8.388h2.904v-.055l.004.055zm-2.056 6.398c-1.63 1.966-4.07 3.214-6.8 3.214C4.25 18 .277 13.97.277 9s3.974-9 8.877-9c3.465 0 6.467 2.014 7.929 4.95h-2.376c-1.243-1.752-3.27-2.893-5.559-2.893-3.78 0-6.843 3.108-6.843 6.943 0 3.835 3.064 6.943 6.843 6.943 2.535 0 4.748-1.399 5.931-3.478h2.27l-.057.135h24.07c1.521.45 1.24 2.186 1.24 2.186H15.955zm-3.618-3.044V5.593h1.936v6.149h-1.936zm2.49-6.149h4.286a2.08 2.08 0 0 1 2.074 2.088c0 .143-.014.282-.04.418h-3.33a3.048 3.048 0 0 1-2.991-2.506zM7.703 9.227L8.51 6.4a1.108 1.108 0 0 1 1.063-.808h1.933v6.149H9.571V8.109h-.139l-1.106 3.633H6.942L5.837 8.109h-.139v3.633H3.763V5.593h1.932c.493 0 .927.33 1.063.808l.808 2.826h.137zm31.948.416c0 .128-.362.57-.577.685-.216.116-.368.15-1.261.15H36.79v1.158h-1.009V9.643H39.651zM35.205 10.8v.835h-2.403V7.843h2.403v.814h-1.458V9.3h1.141v.835h-1.14v.665h1.457zm-9.947.835h-1.015l-.254-.77h-1.014l-.254.77h-1.014l1.268-3.792h1.014l1.269 3.793zm-2.092-1.605h.634l-.317-1.222-.317 1.222zm4.774 1.56c-.33.096-1.027.109-1.331.019-.317-.09-.8-.45-.983-.733-.247-.367-.33-.72-.298-1.3.038-.803.374-1.33 1.059-1.651.425-.2 1.312-.193 1.75.013.177.084.393.225.488.315l.171.16-.228.347c-.127.193-.248.348-.267.348-.019 0-.164-.09-.317-.193-.342-.238-.64-.296-.976-.193-.735.218-.963 1.286-.387 1.8.121.103.292.212.38.231.28.07.717-.02.984-.2.145-.09.31-.215.317-.202.1.135.443.669.443.707 0 .083-.5.435-.805.531zm3.614 0c-.33.096-1.027.109-1.33.019-.318-.09-.8-.45-.984-.733-.247-.367-.33-.72-.298-1.3.038-.803.374-1.33 1.06-1.651.424-.2 1.31-.193 1.749.013.177.084.393.225.488.315l.171.16-.228.347c-.127.193-.247.348-.267.348-.019 0-.164-.09-.317-.193-.341-.238-.64-.296-.976-.193-.735.218-.963 1.286-.387 1.8.12.103.292.212.38.231.28.07.717-.02.984-.2.145-.09.31-.215.317-.202.1.135.443.669.443.707 0 .083-.5.435-.805.531zm7.332-3.62c.471.239.728.65.756 1.212l.008.336h-1.306c-1.225-.018-1.337-.026-1.557-.11a1.98 1.98 0 0 1-1.245-1.342l-.066-.223 1.601.013 1.602.013.207.1zm1.018-.255h3.614v.9H42.25v3.279h-1.078v-3.28h-1.268v-.9z"/>
</svg>
