
<svg xmlns="http://www.w3.org/2000/svg" width="43" height="18" viewBox="0 0 43 18">
    <g fill="#BFBFBF" fill-rule="evenodd">
        <path d="M20.229.126c.095.156.184.315.286.466.645.956 1.292 1.912 1.94 2.866.474.699.953 1.395 1.427 2.094.51.75 1.017 1.5 1.526 2.251.21.31.423.62.64.938l-1.292.694-2.77 1.49c-.46.247-.922.488-1.381.735-.924.495-1.846.994-2.77 1.49-.492.263-.987.52-1.479.784-.91.488-1.818.98-2.728 1.469-.468.252-.939.5-1.408.75-.611.325-1.223.649-1.833.976-.047.025-.084.067-.126.102h-.063c-.163-.237-.325-.475-.489-.71-.543-.783-1.088-1.564-1.632-2.346L6.215 11.5c-.521-.748-1.045-1.494-1.565-2.243-.602-.867-1.2-1.736-1.802-2.603-.69-.994-1.383-1.986-2.077-2.977-.122-.175-.256-.342-.384-.512v-.031l.672-.104c.437-.067.876-.136 1.314-.2.382-.058.766-.108 1.148-.167.438-.067.874-.143 1.312-.209.45-.068.9-.126 1.348-.193.464-.07.926-.145 1.39-.215.438-.066.878-.126 1.316-.193.52-.08 1.038-.166 1.557-.245.444-.068.888-.126 1.332-.193.53-.08 1.059-.163 1.588-.247.382-.06.763-.124 1.144-.183.296-.046.592-.086.888-.13.388-.057.775-.116 1.163-.174l.932-.14c.378-.055.755-.11 1.133-.168.381-.057.763-.115 1.145-.177.102-.016.202-.046.302-.07h.158zM6.109 8.038c0 1.013.003 2.026-.003 3.038 0 .152.032.21.198.208.603-.01 1.206-.01 1.808 0 .157.002.192-.051.19-.198-.006-.636 0-1.273-.004-1.91 0-.12.037-.162.162-.168.308-.014.617-.03.922-.076.579-.085 1.133-.252 1.622-.586.619-.422.94-1.004.888-1.755-.052-.754-.496-1.239-1.16-1.544-.546-.25-1.129-.349-1.721-.38a13.211 13.211 0 0 0-2.71.122c-.143.022-.197.07-.196.227.008 1.007.004 2.015.004 3.022zM18.08 9.047c-.112.061-.192.108-.275.15-.214.108-.422.233-.645.318-.469.177-.962.203-1.455.154-.709-.07-1.132-.446-1.272-1.119a2.655 2.655 0 0 1 .027-1.24c.154-.572.51-.964 1.114-1.05.29-.043.595-.011.89.02.426.044.83.16 1.164.455.128.113.275.204.43.319.01-.063.02-.102.02-.142.006-.276-.009-.554.019-.829.025-.254-.085-.418-.259-.579-.835-.773-1.814-1.057-2.927-.835-1.169.233-2.023.878-2.46 2.005-.32.825-.332 1.672-.072 2.515.255.829.795 1.42 1.585 1.781a3.9 3.9 0 0 0 1.348.331c.943.07 1.85-.025 2.665-.565.087-.057.117-.117.116-.216-.004-.433-.001-.866-.002-1.3 0-.045-.006-.09-.011-.173zm1.018-4.388v6.611c.064.004.12.01.176.01.591 0 1.183-.004 1.775.002.14.002.19-.033.19-.182-.005-2.093-.004-4.185 0-6.277 0-.14-.043-.178-.178-.177-.603.006-1.205.003-1.807.003-.051 0-.102.006-.156.01zm1.039-.39c.896 0 1.49-.86 1.132-1.64-.235-.511-.841-.801-1.404-.673-.546.126-.946.562-.964 1.055-.028.724.498 1.259 1.236 1.259z"/>
        <path d="M8.3 6.825c0-.162.002-.323 0-.485 0-.082.033-.137.12-.126.298.04.601.063.893.135.205.05.356.195.361.437.006.24-.12.388-.327.486-.301.143-.625.16-.95.17-.03.002-.09-.074-.092-.116-.01-.166-.004-.334-.004-.5M27.015 2.43h2.041c.46 0 .812.035 1.053.105.325.095.603.264.835.507.231.243.407.541.528.893.12.352.181.787.181 1.303 0 .454-.057.845-.17 1.173a2.429 2.429 0 0 1-.592.974c-.194.188-.456.335-.785.44-.247.078-.577.117-.99.117h-2.101V2.429zm1.117.932v3.65h.834c.312 0 .537-.017.675-.052a1.03 1.03 0 0 0 .451-.23c.12-.107.218-.284.293-.531.075-.247.113-.584.113-1.01 0-.426-.038-.753-.113-.981a1.258 1.258 0 0 0-.317-.534 1.065 1.065 0 0 0-.517-.26c-.156-.035-.462-.052-.917-.052h-.502zM32.317 6.148l1.087-.105c.066.363.198.63.398.8.2.171.47.256.81.256.36 0 .63-.076.813-.227.183-.152.274-.33.274-.532a.5.5 0 0 0-.115-.333c-.077-.091-.211-.171-.402-.239-.13-.045-.43-.125-.895-.24-.598-.148-1.019-.33-1.26-.546a1.432 1.432 0 0 1-.51-1.109c0-.28.08-.543.24-.788.16-.244.39-.43.69-.558.301-.128.664-.192 1.09-.192.694 0 1.216.152 1.568.455.35.304.535.709.552 1.215l-1.117.049c-.047-.284-.15-.487-.307-.611-.158-.124-.393-.186-.708-.186-.325 0-.579.066-.762.199a.4.4 0 0 0-.178.342c0 .13.056.242.166.335.141.118.483.24 1.027.368.543.128.945.26 1.206.397.26.136.464.323.611.56.147.237.22.53.22.878a1.62 1.62 0 0 1-1.01 1.502c-.323.134-.724.201-1.204.201-.7 0-1.237-.16-1.612-.483-.375-.322-.599-.791-.672-1.408M37.473 6.148l1.087-.105c.065.363.198.63.398.8.2.171.47.256.81.256.36 0 .63-.076.813-.227.182-.152.273-.33.273-.532a.5.5 0 0 0-.115-.333c-.077-.091-.21-.171-.402-.239-.13-.045-.429-.125-.894-.24-.6-.148-1.02-.33-1.26-.546a1.432 1.432 0 0 1-.51-1.109c0-.28.08-.543.24-.788a1.5 1.5 0 0 1 .69-.558c.3-.128.664-.192 1.089-.192.694 0 1.217.152 1.568.455.351.304.535.709.553 1.215l-1.117.049c-.048-.284-.15-.487-.308-.611-.157-.124-.393-.186-.707-.186-.325 0-.58.066-.763.199a.401.401 0 0 0-.177.342c0 .13.055.242.166.335.14.118.483.24 1.026.368.544.128.946.26 1.206.397.26.136.464.323.612.56.147.237.22.53.22.878a1.62 1.62 0 0 1-1.011 1.502c-.322.134-.724.201-1.204.201-.7 0-1.237-.16-1.612-.483-.375-.322-.598-.791-.671-1.408M28.278 10.788l.38.12c-.059.21-.155.367-.29.469a.831.831 0 0 1-.515.153.834.834 0 0 1-.634-.263c-.165-.175-.248-.414-.248-.717 0-.322.083-.57.25-.749a.858.858 0 0 1 .656-.266c.237 0 .43.07.577.21.088.082.154.2.198.354l-.387.093a.41.41 0 0 0-.143-.237.413.413 0 0 0-.265-.087.442.442 0 0 0-.35.154c-.089.102-.133.269-.133.499 0 .244.044.417.132.52a.43.43 0 0 0 .343.156.393.393 0 0 0 .268-.099.574.574 0 0 0 .161-.31M28.914 10.544c0-.196.03-.361.088-.494a.902.902 0 0 1 .18-.265.752.752 0 0 1 .25-.174c.121-.05.26-.076.418-.076.286 0 .514.088.685.265.171.176.257.421.257.735 0 .312-.085.555-.255.731-.17.176-.397.264-.681.264-.288 0-.517-.087-.687-.263-.17-.175-.255-.416-.255-.723zm.403-.013c0 .219.05.384.152.497.1.113.23.17.385.17a.49.49 0 0 0 .384-.169c.1-.112.15-.28.15-.503 0-.221-.049-.386-.146-.495a.495.495 0 0 0-.388-.163.498.498 0 0 0-.39.165c-.098.11-.147.276-.147.498zM31.092 11.497v-1.93h.585l.352 1.317.347-1.316h.586v1.93H32.6v-1.52l-.384 1.52h-.377l-.383-1.52v1.52h-.363M33.35 11.497v-1.93h.628c.238 0 .393.01.465.03.111.029.204.092.279.189a.596.596 0 0 1 .112.375.628.628 0 0 1-.064.299.53.53 0 0 1-.165.19.568.568 0 0 1-.203.092 2.232 2.232 0 0 1-.405.027h-.255v.728h-.391zm.392-1.603v.548h.214c.154 0 .257-.01.309-.03a.255.255 0 0 0 .166-.245c0-.07-.02-.129-.062-.174a.27.27 0 0 0-.157-.086 1.905 1.905 0 0 0-.281-.013h-.19zM35.166 11.497V9.584h.39v1.588h.973v.325h-1.363M36.796 9.568h.488v1.93h-.488zM39.305 11.497h-.425l-.169-.438h-.774l-.16.438h-.415l.755-1.93h.413l.775 1.93zm-.72-.763l-.266-.716-.262.716h.529zM39.517 11.497v-1.93h.38l.793 1.29v-1.29h.363v1.93h-.392l-.78-1.258v1.258h-.364M41.903 11.497V9.894h-.575v-.326h1.539v.326h-.574v1.603h-.39"/>
    </g>
</svg>
