<svg xmlns="http://www.w3.org/2000/svg" width="41" height="18" viewBox="0 0 41 18">
    <g fill="#BFBFBF" fill-rule="evenodd">
        <path d="M3.655 7.409H2.337L.832.619 2.271.378 3.314 5.69 5.95.445h1.383M10.463 5.189H7.344c-.088.946.352 1.354 1.099 1.354.625 0 1.174-.228 1.767-.601v.946a3.8 3.8 0 0 1-2.042.592c-1.362 0-2.262-.773-1.988-2.523.242-1.577 1.34-2.533 2.603-2.533 1.46 0 1.955 1.095 1.735 2.472-.011.103-.044.222-.055.293M8.63 3.26c-.483 0-.933.38-1.153 1.175H9.41c.044-.753-.198-1.175-.78-1.175M12.506 4.596l-.429 2.784H10.87l.747-4.856h1.032v.978c.407-.563.967-1.036 1.724-1.078l.012 1.198c-.77.051-1.45.45-1.878.974M14.362 7.38l.757-4.856h1.208L15.57 7.38m.286-5.667c-.406 0-.68-.283-.626-.682a.853.853 0 0 1 .835-.705c.395 0 .68.293.615.705a.834.834 0 0 1-.824.682M19.677 1.198c-.418 0-.67.184-.736.615l-.11.711h.933v.988h-1.087l-.593 3.868h-1.197l.593-3.868h-.703l.154-.988h.703l.132-.83c.165-1.075.911-1.48 1.91-1.48.21 0 .374.022.484.042l.01.984a3.169 3.169 0 0 0-.493-.042M19.688 7.38l.746-4.856h1.22l-.758 4.856m.285-5.667c-.406 0-.68-.283-.626-.682a.853.853 0 0 1 .835-.705c.395 0 .67.293.615.705a.834.834 0 0 1-.824.682M26.342 5.189h-3.13c-.087.946.352 1.354 1.099 1.354.626 0 1.175-.228 1.768-.601v.946a3.801 3.801 0 0 1-2.043.592c-1.361 0-2.262-.773-1.987-2.523.241-1.577 1.34-2.533 2.613-2.533 1.46 0 1.944 1.095 1.735 2.472a6.001 6.001 0 0 0-.055.293M24.498 3.26c-.484 0-.934.38-1.154 1.175h1.944c.033-.753-.208-1.175-.79-1.175M29.922 7.38v-.673c-.406.412-.933.773-1.603.773-1.021 0-1.724-.753-1.471-2.394.285-1.806 1.405-2.61 2.536-2.61.462 0 .824.08 1.099.18l.362-2.342 1.24-.19-1.12 7.256m-.636-3.73a1.823 1.823 0 0 0-.912-.209c-.637 0-1.186.512-1.35 1.577-.143.943.197 1.387.724 1.387.45 0 .835-.26 1.22-.666l.318-2.089M34.666 7.425c-.57 0-1.032-.09-1.471-.245l.79-5.151.945-.145-.34 2.23c.274-.245.648-.486 1.12-.486.78 0 1.295.576 1.109 1.808-.209 1.355-1.054 1.989-2.153 1.989m.681-2.993c-.307 0-.615.206-.89.48l-.252 1.667c.176.07.308.1.56.1.582 0 .989-.348 1.12-1.188.11-.708-.131-1.059-.538-1.059M38.982 7.576c-.472.908-.933 1.188-1.647 1.188a.996.996 0 0 1-.33-.039l-.01-.753c.12.032.252.052.428.052a.716.716 0 0 0 .648-.387l.12-.244-.768-3.62.966-.123.45 2.616 1.23-2.56h.9M17.162 9.262l-1.999 5.38-.208-1.093c-.571-1.558-1.966-2.417-2.67-2.665l1.66 6.256 2.173-.007 3.218-7.87h-2.174M18.886 17.146l1.274-7.89h2.042l-1.273 7.89h-2.043M28.341 9.449a5.033 5.033 0 0 0-1.834-.328c-2.02 0-3.437 1.068-3.448 2.6-.011 1.136 1.01 1.766 1.79 2.143.79.386 1.065.634 1.054.981 0 .528-.626.77-1.219.77-.824 0-1.252-.12-1.922-.413l-.263-.125-.286 1.763c.473.222 1.362.412 2.274.422 2.152 0 3.547-1.059 3.558-2.697.01-.897-.539-1.576-1.713-2.14-.714-.366-1.154-.608-1.154-.978 0-.328.374-.679 1.175-.679a3.531 3.531 0 0 1 1.527.303l.186.087.275-1.71M33.59 9.266H32.01c-.494 0-.857.138-1.065.653l-3.042 7.23h2.141s.352-.975.44-1.187l2.613.003c.066.274.253 1.184.253 1.184h1.9L33.59 9.266m-2.526 5.08c.176-.453.813-2.204.813-2.204-.01.023.176-.457.275-.753l.142.683s.385 1.882.473 2.274h-1.703"/>
        <path d="M13.307 9.26h-3.294l-.033.163c2.877.73 4.228 2.127 4.975 4.129l-.725-3.63c-.121-.499-.483-.647-.923-.663"/>
    </g>
</svg>
